<svg xmlns="http://www.w3.org/2000/svg" viewBox="0 0 22.13 22.74"><defs><style>.cls-1{fill:#f07c00;}</style></defs><g id="Layer_2" data-name="Layer 2"><g id="Layer_3" data-name="Layer 3"><path class="cls-1" d="M21.77,19.32a8.26,8.26,0,0,1-2.22,2.76,3,3,0,0,1-2.38.61,20.46,20.46,0,0,1-11.27-6A21.74,21.74,0,0,1,0,5.09a3.25,3.25,0,0,1,.6-2.45A8.12,8.12,0,0,1,3.35.34,1.1,1.1,0,0,1,4.9.3s0,0,0,0L8.62,4.17a1.29,1.29,0,0,1,0,1.77L6,8.78a22.3,22.3,0,0,0,7.56,7.79l2.76-2.69a1.21,1.21,0,0,1,1.72,0h0l3.72,3.77a1.17,1.17,0,0,1,0,1.66Z"/></g></g></svg>