<svg xmlns="http://www.w3.org/2000/svg" viewBox="0 0 38.86 38.86"><defs><style>.cls-1{fill:#f07c00;}.cls-2{fill:#fff;}</style></defs><g id="Layer_2" data-name="Layer 2"><g id="Layer_3" data-name="Layer 3"><rect class="cls-1" width="38.86" height="38.86"/><path class="cls-2" d="M14.39,14.43V12.7a4.79,4.79,0,0,1,5-4.48,4.79,4.79,0,0,1,5,4.48v1.73H28a.61.61,0,0,1,.63.51l1.19,15.12a.57.57,0,0,1-.58.58H9.71a.59.59,0,0,1-.63-.54v0l1.2-15.12a.6.6,0,0,1,.63-.51Zm1.89,0h6.3V12.7a3,3,0,0,0-3.15-2.86,3,3,0,0,0-3.15,2.86ZM11.06,29H27.8l-1-13H12.09Z"/></g></g></svg>