<svg height="512" viewBox="0 0 176 176" width="512" xmlns="http://www.w3.org/2000/svg"><g data-name="Layer 2"><g data-name="12.viber"><circle cx="88" cy="88" fill="#6f3faa" r="88"/><g fill="#fff"><path d="M138.83 59.45v-.13c-1.18-4.78-4.26-9.72-8.3-13.88-4.72-4.88-10.73-8.71-16.47-9.95h-.12a137.68 137.68 0 00-51.82 0H62C51.34 37.8 39.77 48.94 37.19 59.32v.13a101.55 101.55 0 000 43.69v.12c1.84 7.4 8.24 15.18 15.62 19.88a30 30 0 007.79 3.61v11.58a4.66 4.66 0 008 3.23l11.74-12.2c2.54.14 5.1.22 7.64.22a138.13 138.13 0 0025.91-2.46h.12c10.63-2.32 22.21-13.46 24.77-23.84v-.12a101.55 101.55 0 00.05-43.71zM129.54 101c-1.72 6.77-10.5 15.2-17.49 16.75A128.49 128.49 0 0184.49 120a.59.59 0 00-.48.2l-8.57 8.8-9.12 9.35a1.06 1.06 0 01-1.83-.73v-19.2a.66.66 0 00-.54-.65 16.94 16.94 0 01-4.18-1.6C53.83 113 47.84 106.5 46.46 101a92 92 0 010-39.49C48.17 54.77 57 46.36 63.94 44.8a128 128 0 0148.11 0c3.85.86 8.25 3.79 11.69 7.39 2.83 2.93 5 6.31 5.8 9.35a92 92 0 010 39.46z"/><path d="M112.3 102a14.83 14.83 0 01-6.36 7 15.21 15.21 0 01-2.75.87c-1.07-.32-2.09-.54-3-.93a75.87 75.87 0 01-20.9-12.29 52.64 52.64 0 01-5.23-5.13 67.8 67.8 0 01-10-15.26c-1.28-2.61-2.36-5.31-3.46-8-1-2.45.48-5 2-6.83a16 16 0 015.37-4 3.46 3.46 0 014.31 1A55.86 55.86 0 0179 67.76a4.44 4.44 0 01-1.25 6c-.5.35-1 .75-1.43 1.14a4.51 4.51 0 00-1.08 1.14 3.13 3.13 0 00-.24 2.77c1.93 5.31 4.86 9.74 9.24 12.85A23.88 23.88 0 0089 94.27a7.25 7.25 0 003.58.88c2.18-.26 2.9-2.67 4.42-3.91a4.19 4.19 0 015-.23c1.62 1 3.18 2.13 4.74 3.23a52.31 52.31 0 014.45 3.4 3.52 3.52 0 011.11 4.36zM89.16 54h-.58zm1.71.08h-1.28c.41-.02.84 0 1.28 0z"/><path d="M113 84.05c-1 0-1.49-.85-1.56-1.78-.13-1.83-.23-3.67-.48-5.49a22.24 22.24 0 00-3.14-8.65 23 23 0 00-15.4-10.58c-1.44-.26-2.91-.32-4.36-.47-.92-.1-2.13-.16-2.33-1.3A1.57 1.57 0 0187.28 54a6.26 6.26 0 01.72 0 26.58 26.58 0 0122 12 26.29 26.29 0 013.78 9.69c.38 2.16.52 4.38.69 6.58a1.54 1.54 0 01-1.47 1.78z"/><path d="M107.59 79.38a3.82 3.82 0 01-.12.88 1.47 1.47 0 01-2.76.15 4.3 4.3 0 01-.15-1.24 16.11 16.11 0 00-1.3-6.51c-.2-.44-.42-.89-.67-1.32a14.56 14.56 0 00-6.11-5.73 18 18 0 00-4.86-1.5c-.74-.12-1.48-.19-2.22-.29a1.41 1.41 0 01-1.33-1.57 1.39 1.39 0 011.55-1.38 20.26 20.26 0 018.43 2.2 17 17 0 017.45 7.36 19.22 19.22 0 011.84 5.9 7.93 7.93 0 01.12.81c.05.6.07 1.2.12 1.94 0 .07.01.16.01.3z"/><path d="M100.74 78a1.3 1.3 0 01-1.06 1h-.22a1.51 1.51 0 01-1.52-1 2 2 0 01-.12-.51 14.27 14.27 0 00-.3-2 5.81 5.81 0 00-2.14-3.35 5.66 5.66 0 00-1.73-.84c-.79-.23-1.62-.17-2.4-.36a1.48 1.48 0 01-1.2-1.71 1.55 1.55 0 011.63-1.24c4.58.33 8 2.53 8.88 7.44a11.77 11.77 0 01.19 1.38 4 4 0 01-.01 1.19z"/></g></g></g></svg>