<?xml version="1.0" standalone="no"?>
<!DOCTYPE svg PUBLIC "-//W3C//DTD SVG 20010904//EN"
 "http://www.w3.org/TR/2001/REC-SVG-20010904/DTD/svg10.dtd">
<svg version="1.0" xmlns="http://www.w3.org/2000/svg"
 width="202.000000pt" height="202.000000pt" viewBox="0 0 202.000000 202.000000"
 preserveAspectRatio="xMidYMid meet">
<metadata>
Created by potrace 1.14, written by Peter Selinger 2001-2017
</metadata>
<g transform="translate(0.000000,202.000000) scale(0.100000,-0.100000)"
fill="#000000" stroke="none">
<path d="M2005 1930 c3 -5 8 -10 11 -10 2 0 4 5 4 10 0 6 -5 10 -11 10 -5 0
-7 -4 -4 -10z"/>
<path d="M0 1683 c0 -2 228 -232 506 -511 l505 -506 505 505 c277 277 504 507
504 511 0 4 -455 7 -1010 7 -556 0 -1010 -3 -1010 -6z"/>
<path d="M0 591 l0 -521 1010 0 1010 0 0 515 c0 283 -2 515 -4 515 -2 0 -75
-72 -164 -159 -88 -88 -163 -157 -167 -153 -4 4 -5 2 -3 -3 1 -6 -148 -163
-333 -348 l-336 -337 -507 506 -506 506 0 -521z"/>
</g>
</svg>
